<?xml version="1.0" standalone="no"?><!DOCTYPE svg PUBLIC "-//W3C//DTD SVG 1.1//EN" "http://www.w3.org/Graphics/SVG/1.1/DTD/svg11.dtd"><svg t="1608024804707" class="icon" viewBox="0 0 2910 1024" version="1.1" xmlns="http://www.w3.org/2000/svg" p-id="11671" xmlns:xlink="http://www.w3.org/1999/xlink" width="568.359375" height="200"><defs><style type="text/css"></style></defs><path d="M73.17141592 592.37796593h2769.15566247v378.90356969H73.17141592z" fill="#A1B7FE" p-id="11672"></path><path d="M2581.4172311 532.20421342l-280.51546854-0.74767146V252.3533422a280.18317058 280.18317058 0 0 1 280.51546854 279.85087122z m-2247.94518245 0C333.47204865 307.15493212 516.40247164 124.55680847 742.06096611 124.55680847v406.3735931z m491.88512021-119.07369319v-109.07704221c27.41464065-30.46071198 27.41464065-30.46071198 58.48456717-67.01356666l132.19949107-154.74041812C1045.28351138 48.79270992 1056.85858219 33.56235324 1072.83661033 9.80299707h124.88892067a879.06846553 879.06846553 0 0 0-4.87371498 101.1295659v197.99463002h17.66721349a429.8006499 429.8006499 0 0 0 60.31221082-4.87371497v110.76622753a483.38381212 483.38381212 0 0 0-59.70299628-3.65528587h-18.27642803v30.46071199c0 34.11599787 1.21842909 51.78321135 4.87371498 74.93335156h-125.6365935a532.23171765 532.23171765 0 0 0 4.87371496-76.15178065v-29.74073052h-172.4076316c-39.59892599 0-56.65692494 0.60921453-79.197852 2.43685678z m252.21469675-102.95720816V239.47676816c0-27.41464065 1.21842909-60.92142399 3.6552859-87.72685148-12.18428534 17.05799894-21.32249798 29.24228428-37.77128376 49.8448022l-88.94527918 108.44013629z m441.68032868 217.48948572c-59.70299628 0-110.26777853-19.38409021-147.42984774-56.65692493a191.84710455 191.84710455 0 0 1-44.47263958-67.62278119 404.29672704 404.29672704 0 0 1-23.75935615-139.51006144c0-63.96749532 15.23035668-130.37184881 38.38049829-168.7523471C1379.13291832 33.00852284 1442.49119909-1.16285918 1519.25219429-1.16285918c59.09378172 0 110.76622617 20.10407027 148.03906227 56.65692494a191.84710455 191.84710455 0 0 1 44.4726396 67.62278119 405.23823954 405.23823954 0 0 1 23.75935478 140.11927736c0 63.96749532-15.23035668 130.98106335-38.38049693 169.36156026-36.55285467 60.92142399-100.52034998 95.03742185-177.89055972 95.03742185z m0-425.84075744c-57.26613948 0-90.77292281 57.87535402-90.7729228 157.17727492 0 109.04934944 31.06992654 165.09706123 91.38213733 165.0970612 59.70299628 0 90.16370826-54.82928268 90.16370827-163.38018449 0.02769137-104.09256171-31.67914107-158.92184302-90.7729228-158.92184301z m257.08841173 282.67541013l129.15341971-22.54092705c3.65528588 20.10407027 7.31057037 28.63306974 17.05799892 38.98971145 16.44878438 17.05799894 40.81735508 26.19621295 70.05963801 26.19621293 47.51871092 0 77.37020975-23.75935615 77.37020973-60.92142534 0-24.9224011-12.18428534-44.47263959-32.89756877-52.39242453-14.01192759-4.87371359-32.89756879-7.91978493-56.65692493-7.91978492s-51.17399681 1.21842909-74.93335296 3.65528451V204.69617297A535.16702347 535.16702347 0 0 0 1970.04304422 208.40684162c57.87535402 0 86.50842238-19.38409021 86.50842375-58.48456719 0-32.89756879-23.15014161-51.78321135-63.35828215-51.78321133-43.25421188 0-65.18592439 17.05799894-74.3241384 56.04771037L1787.27877089 135.3011323c11.57507082-37.77128374 21.32249798-56.04771038 40.8173537-77.37020976 37.16206921-40.20814055 93.20977959-60.92142399 167.53391803-60.92142397 66.45973626 0 121.23363479 18.27642802 155.9588472 51.78321135 22.54092705 22.54092705 34.11599787 51.78321135 34.11599786 86.50842238 0 64.57670986-34.72521241 104.78485041-104.7848504 121.2336348 37.16206921 5.53831088 57.26613948 14.01192759 78.58863746 32.28835561A119.98751434 119.98751434 0 0 1 2199.88296496 378.98683097c0 31.06992654-8.52899947 59.70299628-24.3685707 81.02549425a152.60816791 152.60816791 0 0 1-57.2661381 45.69106868c-31.67914107 14.62114215-81.02549424 23.75935615-126.7165643 23.75935476-54.82928268 0-109.65856399-12.79349851-141.94691823-34.11599649-28.0238552-18.27642802-49.34635455-45.08185413-62.74906761-78.58863882a226.40616731 226.40616731 0 0 1-10.4951-32.28835425z" fill="#A1B7FE" p-id="11673"></path><path d="M1609.66512638 714.22081528h560.69863909a5.53831088 5.53831088 0 0 1 4.01527524 9.35974645L2019.8878464 885.90846543H1443.90346923l161.7463819-169.97077343a5.53831088 5.53831088 0 0 1 4.01527525-1.71687672z m-174.4568063 94.37282455l2.27070712 2.38147402a5.53831088 5.53831088 0 0 1 0 7.67056111l-82.38238023 85.84382506a5.53831088 5.53831088 0 0 1-3.98758384 1.71687673h-7.25518899a4.12604212 4.12604212 0 0 1-2.99068721-6.95058104L1427.28853517 808.59363983a5.53831088 5.53831088 0 0 1 7.8367094-0.19384107z m771.68060868-1.27381187l2.27070711 2.38147405a5.53831088 5.53831088 0 0 1 0 7.6705611l-82.38238025 85.84382645a5.53831088 5.53831088 0 0 1-3.98758521 1.71687535h-7.25518762a4.12604212 4.12604212 0 0 1-2.99068857-6.95057967l86.3145827-90.6344659a5.53831088 5.53831088 0 0 1 7.83671078-0.19383967z" fill="#0E1D80" fill-opacity=".1" p-id="11674"></path><path d="M1444.87267312 839.13742735m5.53831088 0l562.80319657 0q5.53831088 0 5.53831228 5.53831088l0 32.03913042q0 5.53831088-5.53831228 5.53831228l-562.80319657 0q-5.53831088 0-5.53831088-5.53831228l0-32.03913042q0-5.53831088 5.53831088-5.53831088Z" fill="#5266D4" p-id="11675"></path><path d="M1494.02518663 798.40314777h478.6762468l46.02336801 43.1157536H1444.87267312l49.15251351-43.1157536z" fill="#0E1D80" p-id="11676"></path><path d="M1972.50759239 389.48193097a5.53831088 5.53831088 0 0 1 0.60921455 2.51993094V836.06366462a5.53831088 5.53831088 0 0 1-5.53831089 5.53831089H1498.42814396a5.53831088 5.53831088 0 0 1-5.53831229-5.53831089V392.0295533a5.53831088 5.53831088 0 0 1 0.60921454-2.51993094 3.212221 3.212221 0 0 1-0.60921454-1.79995087c0-13.84577793 107.49862239-25.14393354 240.11348831-25.14393354s240.11348694 11.27046421 240.11348696 25.14393354a3.212221 3.212221 0 0 1-0.60921455 1.77225948z" fill="#5266D4" p-id="11677"></path><path d="M1730.59415458 824.76550902V398.53706946h-220.89554778v426.22843956z m4.79063943 0H1956.19726629V398.53706946h-220.81247228z m-225.68618721-431.10215315H1956.19726629a4.79063943 4.79063943 0 0 1 4.79063943 4.79063945v426.3115137a4.79063943 4.79063943 0 0 1-4.79063943 4.79063944H1509.6986068a4.79063943 4.79063943 0 0 1-4.79063945-4.79063944V398.53706946a4.79063943 4.79063943 0 0 1 4.79063945-4.87371359z" fill="#BBCBFF" fill-opacity=".6" p-id="11678"></path><path d="M1548.10679645 436.77910947h139.26083764v349.6612854h-139.26083764z" fill="#BBCBFF" p-id="11679"></path><path d="M1612.82196462 499.05741944v-62.27830997h9.60897026v62.27830997h64.82593367v9.58127889h-64.71516813v62.27831135h64.82593367v9.58127888h-64.82593367v62.27830996h64.82593367v9.58127889h-64.82593367v62.27831136h64.82593367v9.58127888h-64.82593367v62.27830997H1612.82196462v-62.33369411h-64.71516817v-9.58127889H1612.82196462v-62.25061858h-64.71516817v-9.58127889H1612.82196462V580.47059719h-64.71516817v-9.58127889H1612.82196462v-62.25061997h-64.71516817v-9.58127889z" fill="#5266D4" p-id="11680"></path><path d="M1778.61131313 436.77910947h139.26083901v349.6612854h-139.26083901z" fill="#BBCBFF" p-id="11681"></path><path d="M1843.43724818 499.05741944v-62.27830997h9.6089689v62.27830997h64.82593506v9.58127889h-64.82593506v62.27831135h64.82593506v9.58127888h-64.82593506v62.27830996h64.82593506v9.58127889h-64.82593506v62.27831136h64.82593506v9.58127888h-64.82593506v62.27830997h-9.6089689v-62.33369411h-64.82593505v-9.58127889h64.82593505v-62.25061858h-64.82593505v-9.58127889h64.82593505V580.47059719h-64.82593505v-9.58127889h64.82593505v-62.25061997h-64.82593505v-9.58127889z" fill="#5266D4" p-id="11682"></path><path d="M1716.19454488 587.67040065a4.79063943 4.79063943 0 0 1 4.79063944 4.79063944v35.99902426a4.79063943 4.79063943 0 0 1-4.79063944 4.79063945 4.79063943 4.79063943 0 0 1-4.79063945-4.79063945V592.37796593a4.79063943 4.79063943 0 0 1 4.79063945-4.70756528z" fill="#FAFAFA" p-id="11683"></path><path d="M1716.19454488 594.84251411a2.40916542 2.40916542 0 0 1 2.40916541 2.40916542v26.33467123a2.40916542 2.40916542 0 0 1-2.40916541 2.40916542 2.40916542 2.40916542 0 0 1-2.40916542-2.40916542v-26.33467123a2.40916542 2.40916542 0 0 1 2.40916542-2.40916542z" fill="#D3D3D3" p-id="11684"></path><path d="M1694.56743893 611.62359786m3.59990312 0l16.80877373 0q3.59990174 0 3.59990313 3.59990174l0 0q0 3.59990174-3.59990313 3.5999031l-16.80877373 0q-3.59990174 0-3.59990312-3.5999031l0 0q0-3.59990174 3.59990312-3.59990174Z" fill="#5266D4" p-id="11685"></path><path d="M1749.81209512 587.67040065a4.79063943 4.79063943 0 0 0-4.79063944 4.79063944v35.99902426a4.79063943 4.79063943 0 0 0 4.79063944 4.79063945 4.79063943 4.79063943 0 0 0 4.79063942-4.8737136v-35.99902427a4.79063943 4.79063943 0 0 0-4.79063942-4.70756528z" fill="#FAFAFA" p-id="11686"></path><path d="M1749.81209512 594.84251411a2.40916542 2.40916542 0 0 0-2.40916542 2.40916542v26.33467123a2.40916542 2.40916542 0 0 0 2.40916542 2.40916542 2.40916542 2.40916542 0 0 0 2.40916539-2.40916542v-26.33467123a2.40916542 2.40916542 0 0 0-2.40916539-2.40916542z" fill="#D3D3D3" p-id="11687"></path><path d="M1747.4029297 611.62359786m3.59990174 0l16.8087751 0q3.59990174 0 3.59990174 3.59990174l0 0q0 3.59990174-3.59990174 3.5999031l-16.8087751 0q-3.59990174 0-3.59990174-3.5999031l0 0q0-3.59990174 3.59990174-3.59990174Z" fill="#5266D4" p-id="11688"></path><path d="M2114.75911996 657.12082547h4.79063805v28.74383527h-4.79063805z" fill="#D8D8D8" p-id="11689"></path><path d="M2108.94389248 672.87732118m5.53831088 0l5.37216263 0q5.53831088 0 5.53831088 5.53831089l0 220.8678564q0 5.53831088-5.53831088 5.53831089l-5.37216263 0q-5.53831088 0-5.53831088-5.53831089l0-220.8678564q0-5.53831088 5.53831088-5.53831089Z" fill="#A1B7FE" p-id="11690"></path><path d="M2107.5593151 654.71166007a9.60897026 9.58127889 0 1 0 19.21794052 0 9.60897026 9.58127889 0 1 0-19.21794052 0Z" fill="#A1B7FE" p-id="11691"></path><path d="M2102.74098429 676.28338186h28.8269094a4.79063943 4.79063943 0 0 1 4.79063944 4.79063944 4.79063943 4.79063943 0 0 1-4.79063944 4.79063944h-28.8269094a4.79063943 4.79063943 0 0 1-4.79063946-4.79063944 4.79063943 4.79063943 0 0 1 4.79063946-4.79063944z" fill="#D8D8D8" p-id="11692"></path><path d="M1341.61085837 657.12082547h4.79063945v28.74383527h-4.79063945z" fill="#D8D8D8" p-id="11693"></path><path d="M1335.79563229 672.87732118m5.53831088 0l5.37216123 0q5.53831088 0 5.53831227 5.53831089l0 220.8678564q0 5.53831088-5.53831227 5.53831089l-5.37216123 0q-5.53831088 0-5.53831088-5.53831089l0-220.8678564q0-5.53831088 5.53831088-5.53831089Z" fill="#A1B7FE" p-id="11694"></path><path d="M1334.41105354 654.71166007a9.60897026 9.58127889 0 1 0 19.21794052 0 9.60897026 9.58127889 0 1 0-19.21794052 0Z" fill="#A1B7FE" p-id="11695"></path><path d="M1358.44732488 676.28338186h-28.85460217A4.79063943 4.79063943 0 0 0 1324.82977465 680.99094715a4.79063943 4.79063943 0 0 0 4.79063943 4.79063943h28.8269108a4.79063943 4.79063943 0 0 0 4.79063944-4.79063943 4.79063943 4.79063943 0 0 0-4.79063944-4.70756529z" fill="#D8D8D8" p-id="11696"></path><path d="M1384.17278158 681.40632064a1027.16290919 1027.16290919 0 0 0 351.21201243 61.11526503A1030.62435402 1030.62435402 0 0 0 2086.62449784 679.052538a6.64597307 6.64597307 0 0 1 8.91668159 6.25829234v1.66149257a11.07662317 11.07662317 0 0 1-7.50441284 10.49510001q-179.16437158 61.05988227-352.65197258 61.72447959-172.71223819 0.58152316-351.07355553-58.87224931a13.29194752 13.29194752 0 0 1-9.08282986-12.59965744 6.70135722 6.70135722 0 0 1 8.94437296-6.31367512z" fill="#F49130" p-id="11697"></path><path d="M1681.44164108 738.7001515q24.59010175 2.35378265 49.1525135 2.35378128t49.15251212-2.35378128a5.53831088 5.53831088 0 0 1 6.03675989 4.98447912v13.23656475a5.53831088 5.53831088 0 0 1-4.98448048 5.5383109q-25.11624214 2.46454817-50.23248292 2.46454956t-50.23248428-2.46454956a5.53831088 5.53831088 0 0 1-4.98448051-5.5383109v-12.71042435a5.53831088 5.53831088 0 0 1 5.53831228-5.5383109zM2038.66272205 690.32300221l38.54664658-11.07662317a11.9904443 11.9904443 0 0 1 14.8149832 8.30746703 11.96275291 11.96275291 0 0 1-8.30746702 14.78729182l-38.57433937 11.07662179a5.53831088 5.53831088 0 0 1-6.83981412-3.79374278l-3.54451897-12.3781264a5.53831088 5.53831088 0 0 1 3.79374279-6.83981414zM1880.46085911 727.26353761l60.20144391-9.49820335a5.53831088 5.53831088 0 0 1 6.34136649 4.59679837l2.0214833 12.71042439a5.53831088 5.53831088 0 0 1-4.59679839 6.34136647L1884.19921914 750.91212824a5.53831088 5.53831088 0 0 1-6.3413665-4.59679839L1875.89175211 733.60490409a5.53831088 5.53831088 0 0 1 4.59679838-6.34136648zM1424.27015521 692.53832657l-38.54664659-11.07662317a11.9904443 11.9904443 0 0 0-6.64597445 23.01168333l38.57433935 11.07662315a5.53831088 5.53831088 0 0 0 6.83981413-3.79374277l3.54451897-12.37812641a5.53831088 5.53831088 0 0 0-3.79374279-6.83981413z m158.20186295 35.99902288l-60.20144391-9.49820335a5.53831088 5.53831088 0 0 0-6.34136649 4.59679838l-2.0214833 12.71042438a5.53831088 5.53831088 0 0 0 4.59679838 6.3413665l60.20144391 9.49820335A5.53831088 5.53831088 0 0 0 1585.13040738 747.4506834l2.02148331-12.71042437a5.53831088 5.53831088 0 0 0-4.59679839-6.34136648z" fill="#FFFFFF" fill-opacity=".9" p-id="11698"></path><path d="M809.76682145 916.25841188a238.83967646 55.02312236 0 1 0 477.67935293 0 238.83967646 55.02312236 0 1 0-477.67935293 0Z" fill="#0E1D80" fill-opacity=".1" p-id="11699"></path><path d="M906.6872697 675.89570113c-11.07662317-2.76915614-22.43016154-5.26139569-34.75290242 0-6.03675991 2.51993232-10.21818481 8.30746703-13.59655549 15.06420701-4.45834011 26.91619301 1.66149395 44.00188333 13.59655549 55.68771967 13.26425614 4.43064871 24.34087794 2.18763298 34.75290242 0z" fill="#F49130" p-id="11700"></path><path d="M914.10860699 698.07663747l11.9627529 29.24228428 11.07662317 80.8316532 8.86129743 101.07418176h14.87036596c4.81833083-43.00498806 9.05513847-87.2837866 10.57817416-103.84333789s0.44306487-102.73567572-5.5383109-107.24939858z" fill="#0E1D80" p-id="11701"></path><path d="M885.3924631 690.95990814h46.8541136c4.65218115 32.26066285-6.03675991 99.99421095-6.03675851 99.99421097-4.70756528 28.27307901-22.67938537 118.24294622-22.67938537 118.24294621h-18.13796972l4.5414156-113.72922334z" fill="#0E1D80" p-id="11702"></path><path d="M982.0913789 923.87359023c-9.05513847 2.76915614-31.73452385 2.76915614-39.29431943-1.32919462-3.65528588-5.34446985 4.87371359-13.37502167 3.01837997-13.37502167h15.11958978s28.82691078 10.71663244 21.15634968 14.70421629z m-95.97893573-16.19956057s-7.42133728 9.16590539-4.07065799 13.84577793 41.12196166 6.20290819 41.12196167 1.27381185-19.05179086-15.06420702-19.05179087-15.06420702z" fill="#F49130" p-id="11703"></path><path d="M892.84149177 600.68543297s-16.61493407 35.99902426-16.61493408 51.17399682 28.71614389 21.07327417 28.71614389 21.07327415l4.54141563-69.22889101z" fill="#7589F2" p-id="11704"></path><path d="M963.45496153 503.04500466a32.56527082 32.56527082 0 0 1 8.4736167 9.8305027c2.76915614 5.53831088 5.53831088 28.1346221 5.5383109 28.13462072h-5.5383109s-2.76915614 14.06731037-8.4736167 18.27642803c-7.06134655 1.41226876-24.00857997-1.41226876-24.00857996-1.41227013l-14.12269314 4.20911765v-63.1644411z" fill="#FFE4A8" p-id="11705"></path><path d="M920.14536689 566.15406161a65.26899854 65.26899854 0 0 1 31.73452385 8.30746704c13.5965541 16.03341091 24.17472825 155.54347371 18.13796972 160.91563631s-75.54256611 0-83.0746703-5.34447121S889.9338787 608.99290001 906.6872697 578.53218801c7.42133728-10.60586553 13.45809719-12.3781264 13.45809719-12.3781264z" fill="#5266D4" p-id="11706"></path><path d="M1010.19830825 653.4378482l1.19073769 13.56886274 37.63282548-3.2399124-0.44306489-6.78443136-38.38049828-3.54451898z" fill="#FFE4A8" p-id="11707"></path><path d="M1042.61862115 660.37427839a7.50441143 10.5227914 85.08 1 0 20.9680389-1.80496884 7.50441143 10.5227914 85.08 1 0-20.9680389 1.80496884Z" fill="#FFE4A8" p-id="11708"></path><path d="M945.84313082 575.07074319c-21.15634969 6.00906715-9.05513847 35.99902426-4.54141425 43.64189261s22.67938537 42.14654971 34.75290242 46.66027394 36.27593947 3.01837996 36.27593947 3.01837858V653.29938992s-16.61493407-6.00906715-22.67938398-10.5227914-22.65169396-73.71492387-43.80804366-67.70585533z" fill="#7589F2" p-id="11709"></path><path d="M923.93910969 566.34790267l21.18404105 4.20911628 1.38457738-11.24277146-19.74407953-5.62138642-2.8245389 12.6550416z" fill="#FFE4A8" p-id="11710"></path><path d="M897.16137495 613.39585735a3.48913622 3.48913622 0 0 1 2.46454818 4.23680765l-18.99640809 70.05963938a3.51682759 3.51682759 0 0 1-4.29219044 2.49223955 3.48913622 3.48913622 0 0 1-2.46454955-4.23680766l18.99640809-70.05963936a3.51682759 3.51682759 0 0 1 4.29219181-2.49223956z" fill="#F49130" p-id="11711"></path><path d="M914.10860699 623.22636004c9.05513847-3.01837996 16.61493407-16.61493407 16.61493405-16.61493406s7.55979557-22.56861845 13.5965541-27.08234268 9.05513847-3.01837996 9.05513988-3.01837996l-7.55979558-7.53210282s-18.49796046-0.55383179-21.15634831-7.53210282c0 0-27.19310821 16.61493407-31.73452522 31.59606554-3.01837996 10.5227914-1.52303567 21.07327417 4.54141564 27.0823427s7.58748697 6.11983405 16.64262544 3.1014541z m33.81139128-138.4577834c-9.88588546 0-26.83311887 5.53831088-32.48219667 18.27642802s0 39.37739356 5.53831227 44.99877861 11.29815559 2.76915614 15.53496327-1.41226877 8.55669085-17.55644657 4.23680766-26.72235196a24.34087794 24.34087794 0 0 0 12.71042435 2.76915476c8.4736167 0 18.35950218 1.41226876 25.42084875-11.27046284s-21.07327417-26.63927781-30.95915963-26.63927782z" fill="#0E1D80" p-id="11712"></path><path d="M947.80923136 525.03209995c0 6.14752544 0.3876821 9.52589612-3.01837857 10.19049343s-3.65528588-0.22153244-6.59059169-3.54451899-5.89830161-13.84577793 3.01837996-14.39960969c3.48913622-0.22153244 6.47982478 1.63380119 6.5905903 7.75363525zM1154.55439326 725.60204504s-22.15324496 73.05032656-20.74097619 83.26850997 9.69204442 97.88965212 9.69204578 97.88965353l-9.69204578 10.21818342c5.06755463 3.51682759 14.59345076 2.18763298 24.92240109 0l-4.15373351-14.62114077s12.43350917-109.57548985 11.07662316-96.42200061S1186.37199263 719.75912618 1186.37199263 719.75912618z" fill="#FFE4A8" p-id="11713"></path><path d="M1123.56754226 817.51032139c6.09214267 8.91668158 52.61395694 69.00735858 64.24441051 84.1823325a8.14131735 8.14131735 0 0 1 1.1907377 7.69825248l-1.88302638 5.28908708a7.86440215 7.86440215 0 0 1-2.38147404 3.40606207c-1.19073633 0.96920388-2.57531508 2.29839989-2.57531508 3.15683686s4.76294806 0.69228868 8.30746703 0.38768212a7.44902867 7.44902867 0 0 0 6.06445129-4.18142491c2.46454817-4.92909774 6.45213202-13.15348923 6.45213341-15.20266531 0-1.52303567-3.07376271-4.29219181-6.00906853-6.53520754a24.36856931 24.36856931 0 0 1-7.78132664-10.52279138l-29.29766705-75.985631a8.11362597 8.11362597 0 0 1-0.30460795-0.91382112l-23.31628991-90.96676386A7.53210281 7.53210281 0 0 0 1128.21972342 711.45165913l-12.73811575 1.46765293a7.75363526 7.75363526 0 0 0-6.67366584 8.58438222c2.32609126 22.70707675 8.99975573 87.61608455 14.75960043 96.00662711z" fill="#FFE4A8" p-id="11714"></path><path d="M1202.9869267 899.75424473c2.76915614-0.91382113 5.53831088 6.03675991 5.53831089 7.53210281s-7.89209355 15.61803741-9.74742855 16.61493407a50.53709087 50.53709087 0 0 1-16.61493407 0c-2.96299719-1.05227941-0.30460658-7.53210281 5.53831228-7.53210281h8.30746702s4.43064871-9.4428206 6.97827243-16.61493407z m-66.45973625 15.00882287c-7.69825249 0.63690593-12.04582706 5.34446985-10.71663246 8.00286044s12.79349851 1.77225949 18.71949152 1.32919463c6.70135722-1.32919461 10.71663244-1.32919461 13.37502305-4.01527523 1.32919461-4.01527522 1.32919461-7.64286972-1.32919598-9.33205506 0 0-8.03055184 6.67366583-12.04582707 6.67366584a17.00261617 17.00261617 0 0 1-8.00285906-2.60300647z" fill="#5266D4" p-id="11715"></path><path d="M1103.29732232 729.22963815s11.07662317 83.0746703 15.23035668 84.54232321 22.15324496-10.19049342 31.84528937-11.65814494 13.84577793 5.84291886 19.38409019 4.37526594 16.61493407-86.00997474 16.61493407-86.00997613L1143.45007872 705.91334825z" fill="#0E1D80" p-id="11716"></path><path d="M1175.29536945 570.22472098h-16.8087751l-22.40246879 21.90402116 11.07662179-21.90402116s-18.19335249 10.21818481-26.61158504 21.90402116-9.80281133 10.21818481-12.59965884 27.69155584 9.80281133 43.7803509 4.20911629 64.21672051-14.01192759 32.12220594-11.07662181 45.24800381c8.30746703 7.31057037 39.21124389-14.59345076 61.61371267-11.68583772s19.60562263 8.7505319 25.19931767 4.37526595-9.8305027-87.53301041-9.83050269-70.00425522 7.00596381-72.9949438 7.0059638-72.99494242z" fill="#5266D4" p-id="11717"></path><path d="M1112.98936673 603.45458911l35.22366005 35.99902288 4.92909772-22.90091778 24.9224011 5.81522747s-15.23035668 48.01715856-20.76866758 50.92477299-6.92288966 4.37526595-17.99951282-5.81522749S1103.29732232 603.45458911 1103.29732232 603.45458911z" fill="#FFE4A8" p-id="11718"></path><path d="M1170.80933661 568.00939663c-11.24277146 5.95368438-14.39960971 15.56265466-19.68869541 26.8054261-3.65528588 10.41202586-4.20911628 26.8054275-2.76915614 31.2637676s22.51323568 11.90736877 26.72235196 10.41202585 16.83646651-29.7684233 16.8364665-46.13413353-12.6550416-25.3100832-21.10096691-22.34708602z" fill="#7589F2" p-id="11719"></path><path d="M1050.68336399 574.43383726l47.07564743-1.43996151 30.460712 69.22889238h-44.30649131l-33.22986812-67.78893087z" fill="#F49130" p-id="11720"></path><path d="M1103.29732232 586.83965505a5.53831088 5.53831088 0 0 0 4.54141561 2.76915475c3.01837996 0 8.30746703 1.4953443 9.08282987 4.15373352 1.24612047 3.84912693-3.62759451 13.23656338-4.54141563 12.43350917z m-29.68534915 35.99902289c2.51993232-0.77536422 16.78108372 3.40606207 15.78418707 6.86750689a9.94126823 9.94126823 0 0 1-9.22128814 6.8675055c-1.79995086 0.11076691-9.8305027-12.62735022-6.56289893-13.73501239zM1146.71768248 548.23762432v20.60251791L1133.75803431 592.37796593l27.35925788-23.5378237H1169.75705856l-2.87992165-23.53782233-20.15945443 2.93530442z" fill="#FFE4A8" p-id="11721"></path><path d="M1143.45007872 495.8728912s-12.59965884 25.28239183-12.46119918 31.23607619c0.13845828 6.64597307 2.76915614 28.24538763 8.30746566 31.23607484s23.53782371-2.96299719 23.53782371-2.96299583l31.84529075-32.75911187L1165.60332506 489.91920682z" fill="#FFE4A8" p-id="11722"></path><path d="M1142.37010928 502.7403967c2.76915614 0 1.41226876 11.82429461 4.23680768 16.25494472s5.53831088 5.89830161 9.88588546 8.86129743a6.70135722 6.70135722 0 0 1 2.76915614 7.39364591l9.88588545-4.43064872c4.43064871 8.11362597-4.23680767 14.75959905-4.23680764 14.75959906s-7.06134655 8.86129744 0 13.29194752c4.23680767 1.46765291 7.06134655-2.96299719 7.06134656-2.9629972s7.06134655 4.43064871 11.29815422 0 5.53831088-8.30746703 2.76915614-16.25494333c7.64286972 0.19384106 12.82119127-4.26449904 14.09500312-16.25494334-1.13535356-9.71973579-3.79374279-18.22104387-15.50727187-19.19024915a19.38409021 19.38409021 0 0 0-11.29815562-19.19024914 28.07923796 28.07923796 0 0 0-22.56861844 4.43065009 16.17186919 16.17186919 0 0 0-15.50727189 0c-4.23680767 2.96299719-7.06134655 13.29194752-5.5383109 19.19024778 0 0-4.23680767 1.46765291-4.23680904 8.8612988s4.23680767 7.39364591 4.23680904 7.39364591c0.77536422 0.47075625 4.23680767-5.89830161 4.23680767-5.89830162s7.00596381-16.25494335 8.41823392-16.25494472z" fill="#0E1D80" p-id="11723"></path><path d="M1159.76040619 533.5887908c-1.35688599 5.34446985-1.63380119 9.60897026 0.41537349 11.27046423s6.25829235-1.4953443 8.30746703-5.20601294a9.4428206 9.4428206 0 0 0-0.41537347-9.74742855c-1.66149395-2.60300646-6.09214267-0.85843836-8.30746705 3.68297726z" fill="#FFE4A8" p-id="11724"></path></svg>